<svg overflow="scroll" viewBox="7.591810019517593 13.58045115719796 48.539913655659916 36.419548842802044" xmlns="http://www.w3.org/2000/svg" width="2500" height="1394"><linearGradient id="a" gradientUnits="userSpaceOnUse" x1="14.001" x2="32" y1="30.744" y2="30.744"><stop offset="0" stop-color="#c8c8c8"/><stop offset="1" stop-color="#cdcdcd"/></linearGradient><linearGradient id="b" gradientUnits="userSpaceOnUse" x1="28.665" x2="50" y1="36.447" y2="36.447"><stop offset="0" stop-color="#d9d9d9"/><stop offset="1" stop-color="#e2e2e2"/></linearGradient><path d="M53 50H11a3 3 0 0 1-3-3V17a3 3 0 0 1 3-3h42a3 3 0 0 1 3 3v30a3 3 0 0 1-3 3z" fill="#eaeaea"/><path d="M14 50h-3a3 3 0 0 1-3-3V17a3 3 0 1 1 6 0z" fill="#d54c3f"/><path d="M50 50h3a3 3 0 0 0 3-3V17a3 3 0 1 0-6 0z" fill="#b63524"/><path d="M54.718 19.46a3 3 0 1 0-3.436-4.92l-19.28 14.037-.002.001-.002-.001-19.28-14.037a3 3 0 0 0-3.436 4.92l-.08-.059L32 36M54.799 19.401L32 36" fill="#de5145"/><path d="M53 14c-.639 0-1.232.2-1.718.54l-19.28 14.037-.002.001-.002-.001-19.28-14.037A2.988 2.988 0 0 0 11 14z" fill="#efefef"/><path d="M14.001 24.188L8.945 19.18l-.002.004c.106.1.219.192.339.276l-.08-.059 4.8 3.495-.001 1.328" fill="#c64132"/><path d="M28.668 38.591L14 50l.001-25.937 14.664 14.524" fill="#e3e3e3"/><path d="M28.668 38.591L32 36 14.001 22.896v1.167l14.664 14.524z" fill="url(#a)"/><path d="M40.061 50H50V22.895L32 36l-3.335 2.587z" fill="url(#b)"/></svg>