<?xml version="1.0" encoding="UTF-8"?>
<svg version="1.1" xmlns="http://www.w3.org/2000/svg" width="705" height="179">
<path d="M0 0 C3.34419724 0.01385214 6.68557872 -0.0203082 10.02954102 -0.05834961 C26.8031292 -0.11826137 44.20338305 1.06492951 58.04711914 11.57641602 C58.9887793 12.23383789 58.9887793 12.23383789 59.94946289 12.90454102 C70.85099515 21.20592663 75.88323357 35.48290648 78.04711914 48.57641602 C78.33107375 52.55725856 78.35132209 56.52402988 78.34790039 60.51391602 C78.35218552 61.63403076 78.35647064 62.75414551 78.36088562 63.90820312 C78.36660124 66.26472297 78.36714973 68.62126045 78.36279297 70.9777832 C78.35962863 74.56565612 78.38314321 78.152707 78.40844727 81.74047852 C78.41072023 84.03995665 78.41142377 86.33943698 78.41040039 88.63891602 C78.41961014 89.70166748 78.42881989 90.76441895 78.43830872 91.859375 C78.39749802 98.48568519 78.25214003 105.99749006 73.59516907 111.19775391 C69.38963069 114.79777668 66.6165853 115.85105693 61.09008789 115.81079102 C58.22870388 115.48252516 56.3229974 114.28332471 54.04711914 112.57641602 C53.9865332 113.21450195 53.92594727 113.85258789 53.86352539 114.51000977 C53.77973633 115.33629883 53.69594727 116.16258789 53.60961914 117.01391602 C53.5284082 117.83762695 53.44719727 118.66133789 53.36352539 119.51000977 C53.04711914 121.57641602 53.04711914 121.57641602 52.04711914 122.57641602 C50.53242466 122.80834466 49.00957352 122.9885684 47.48461914 123.13891602 C46.65833008 123.22270508 45.83204102 123.30649414 44.98071289 123.39282227 C44.34262695 123.4534082 43.70454102 123.51399414 43.04711914 123.57641602 C44.03711914 124.81391602 44.03711914 124.81391602 45.04711914 126.07641602 C47.53891341 129.84970448 47.90295401 133.16489609 47.04711914 137.57641602 C44.43843083 143.0024877 41.31620914 145.08053128 36.04711914 147.57641602 C32.54980239 148.44749167 29.26621778 148.71495395 25.66870117 148.75341797 C24.09017868 148.77267082 24.09017868 148.77267082 22.47976685 148.79231262 C20.78447342 148.80339302 20.78447342 148.80339302 19.05493164 148.81469727 C17.87679901 148.82276901 16.69866638 148.83084076 15.48483276 148.8391571 C12.98835716 148.85298003 10.49186279 148.86371018 7.99536133 148.87158203 C5.46437978 148.88305711 2.93342156 148.90343702 0.40258789 148.93310547 C-20.90802314 149.18275202 -39.27997224 148.52076849 -55.95288086 133.57641602 C-65.35579803 122.76846524 -70.98793062 108.34957282 -71.11401367 93.91650391 C-71.12362122 93.0210939 -71.13322876 92.1256839 -71.14312744 91.20314026 C-71.14737732 90.24479782 -71.1516272 89.28645538 -71.15600586 88.29907227 C-71.16170593 87.29613632 -71.16740601 86.29320038 -71.17327881 85.25987244 C-71.18271449 83.13582406 -71.1892571 81.01176114 -71.19311523 78.88769531 C-71.202753 75.68145123 -71.23376211 72.47586733 -71.26538086 69.26977539 C-71.37227357 48.72345443 -68.99712206 30.02828975 -54.07788086 14.64282227 C-39.15317507 0.65091059 -19.34727616 -0.11154016 0 0 Z M-35.62084961 33.92407227 C-45.13376014 44.38548414 -44.32066312 60.711413 -44.26538086 73.88891602 C-44.26389038 74.56729523 -44.2623999 75.24567444 -44.26086426 75.9446106 C-44.44354496 97.46971388 -44.44354496 97.46971388 -34.70288086 115.88891602 C-17.74689688 126.29372437 8.42280483 124.30745829 27.24633789 120.95532227 C31.36623559 120.39795814 34.96612637 120.87279657 39.04711914 121.57641602 C39.10770508 120.86614258 39.16829102 120.15586914 39.23071289 119.42407227 C39.35639648 118.04541992 39.35639648 118.04541992 39.48461914 116.63891602 C39.60643555 115.26413086 39.60643555 115.26413086 39.73071289 113.86157227 C40.04711914 111.57641602 40.04711914 111.57641602 41.04711914 110.57641602 C42.8960386 110.34277721 44.75199946 110.16337967 46.60961914 110.01391602 C47.6215332 109.93012695 48.63344727 109.84633789 49.67602539 109.76000977 C50.45848633 109.69942383 51.24094727 109.63883789 52.04711914 109.57641602 C51.89259277 109.03331787 51.73806641 108.49021973 51.57885742 107.93066406 C50.07393136 102.0794965 50.06662822 97.33051 50.92211914 91.38891602 C52.31114292 80.03860743 52.31795078 69.1455309 51.23461914 57.76391602 C51.1646875 56.98725586 51.09475586 56.2105957 51.02270508 55.41040039 C50.12970769 47.06389889 48.27793544 39.53030715 42.04711914 33.57641602 C25.86462853 22.63156188 -19.66134974 21.02939439 -35.62084961 33.92407227 Z M44.04711914 113.57641602 C43.66493147 115.23256259 43.33316812 116.90098626 43.04711914 118.57641602 C44.17246019 119.93260101 44.17246019 119.93260101 47.10961914 119.63891602 C48.07899414 119.61829102 49.04836914 119.59766602 50.04711914 119.57641602 C50.04711914 117.59641602 50.04711914 115.61641602 50.04711914 113.57641602 C48.06711914 113.57641602 46.08711914 113.57641602 44.04711914 113.57641602 Z " fill="#EF5F3E" transform="translate(70.952880859375,-0.576416015625)"/>
<path d="M0 0 C10.54818292 7.81229739 16.02250628 17.77842409 19.10546875 30.3671875 C20.03343485 41.27078919 20.03343485 41.27078919 18.35546875 46.3046875 C-3.09453125 46.3046875 -24.54453125 46.3046875 -46.64453125 46.3046875 C-42.06815446 56.60153528 -39.26562494 61.86513729 -29.64453125 67.3046875 C-22.89406704 69.55484224 -16.98254221 68.61465696 -10.6640625 65.52734375 C-7.80157788 63.79435016 -5.8232714 61.83483735 -3.64453125 59.3046875 C-0.6060042 60.71445455 1.94942825 62.39338978 4.60546875 64.4296875 C5.311875 64.96851562 6.01828125 65.50734375 6.74609375 66.0625 C7.2771875 66.47242188 7.80828125 66.88234375 8.35546875 67.3046875 C7.02926356 72.94105958 3.0285612 75.40689252 -1.64453125 78.3046875 C-11.57234465 83.4392031 -21.74037258 85.02085098 -32.79296875 82.62109375 C-43.58043028 78.97994777 -52.68198941 71.4549177 -58.22265625 61.45703125 C-63.68204445 49.80092368 -65.26442669 34.49960033 -61.01953125 22.1171875 C-55.62995437 9.98587841 -46.94200964 0.51216841 -34.64453125 -4.6953125 C-23.57030326 -8.46948886 -9.59060455 -6.14818667 0 0 Z M-42.23828125 19.24609375 C-44.84966051 23.06886284 -46.64453125 26.5806688 -46.64453125 31.3046875 C-30.47453125 31.3046875 -14.30453125 31.3046875 2.35546875 31.3046875 C0.74673718 21.6522981 -3.86142831 16.08596355 -11.64453125 10.3046875 C-22.52270674 3.72052865 -35.14603005 10.39750676 -42.23828125 19.24609375 Z " fill="#EF5F3F" transform="translate(517.64453125,61.6953125)"/>
<path d="M0 0 C11.17548899 6.98875332 18.44068943 16.3463237 21.98828125 29.0078125 C24.65216019 43.13991605 22.78690307 56.64163313 14.6796875 68.67578125 C8.12614618 77.48210239 0.44225341 83.14812231 -10.3203125 85.67578125 C-22.28783242 86.73463589 -32.23664952 85.66211242 -42.1328125 78.36328125 C-51.2153762 70.70543343 -57.87106343 60.77298533 -59.3203125 48.67578125 C-60.26359695 33.83589553 -57.80569915 21.35487182 -48.57421875 9.41796875 C-36.55537303 -3.72530121 -16.06390414 -7.89845702 0 0 Z M-36.6953125 18.86328125 C-42.12047036 25.8867859 -45.43251112 35.79385704 -44.3203125 44.67578125 C-42.08256373 54.68810861 -38.98379081 62.84686333 -30.1953125 68.61328125 C-24.61939793 71.91628286 -18.55695699 72.68337273 -12.234375 71.1796875 C-5.11325309 68.76505421 -0.20554483 64.44102449 3.578125 57.984375 C8.12430326 48.45674609 8.68882069 39.50348077 5.7109375 29.453125 C2.58666694 21.03889635 -2.44991222 15.87332806 -10.3203125 11.67578125 C-20.0967063 8.41698332 -29.68694428 11.43229786 -36.6953125 18.86328125 Z " fill="#EF5F3F" transform="translate(604.3203125,59.32421875)"/>
<path d="M0 0 C4.62242785 3.55498059 7.33723304 7.9617389 8.12217712 13.80409241 C8.24298867 16.22684538 8.27408455 18.6328358 8.265625 21.05859375 C8.27086685 21.95009125 8.2761087 22.84158875 8.2815094 23.76010132 C8.28790758 25.64100102 8.28662128 27.52194086 8.27807617 29.40283203 C8.26961731 32.24065949 8.29827501 35.07643602 8.33007812 37.9140625 C8.37856965 50.37200598 8.02204422 62.89122435 -0.41015625 72.93359375 C-9.38736165 81.67140701 -19.38367984 84.17077031 -31.60546875 84.08203125 C-32.57806641 84.10201172 -33.55066406 84.12199219 -34.55273438 84.14257812 C-42.39275265 84.13734097 -49.27023749 82.66131187 -55.5703125 77.78515625 C-61.41657728 70.58517622 -63.75091768 64.6813606 -63.453125 55.3203125 C-62.75694216 48.78763791 -60.23937462 42.98792509 -55.16796875 38.64453125 C-46.05113223 32.21341611 -34.64176986 31.46308798 -23.87890625 30.08984375 C-22.86219849 29.95968872 -22.86219849 29.95968872 -21.82495117 29.8269043 C-19.96558132 29.59572195 -18.10391801 29.38320657 -16.2421875 29.171875 C-13.43724438 28.69072211 -11.54047356 28.18299637 -9.16796875 26.64453125 C-7.43532963 23.17925301 -7.69599135 19.43346097 -8.16796875 15.64453125 C-10.53324608 11.52719664 -12.71727428 10.05001371 -17.16796875 8.64453125 C-27.68391242 7.7398076 -36.96553954 9.09392395 -47.16796875 11.64453125 C-47.16796875 7.02453125 -47.16796875 2.40453125 -47.16796875 -2.35546875 C-32.39481589 -7.08287767 -13.63250942 -8.52338877 0 0 Z M-22.39990234 42.45117188 C-23.73667181 42.66205348 -25.07493643 42.86368216 -26.41455078 43.05566406 C-34.72447308 44.2507159 -40.45325305 45.27042528 -46.16796875 51.64453125 C-47.91377099 55.13613572 -47.73780006 58.83498483 -47.16796875 62.64453125 C-45.47615322 65.97902243 -43.21265859 68.13953998 -39.81640625 69.78125 C-32.65480182 72.11563728 -25.24906059 71.08248795 -18.46484375 68.046875 C-12.99081827 64.7047404 -9.04930823 59.7723227 -7.16796875 53.64453125 C-6.92746943 50.28947599 -6.92746943 50.28947599 -7.04296875 46.83203125 C-7.06101562 45.67058594 -7.0790625 44.50914063 -7.09765625 43.3125 C-7.12085938 42.43207031 -7.1440625 41.55164063 -7.16796875 40.64453125 C-12.30466858 40.64453125 -17.33699634 41.63596866 -22.39990234 42.45117188 Z " fill="#EF5F3F" transform="translate(303.16796875,61.35546875)"/>
<path d="M0 0 C6.98550644 5.40473451 10.57557648 13.04068379 12 21.65234375 C12.2669859 26.28953594 12.23302151 30.9150512 12.1953125 35.55859375 C12.19157544 36.8923725 12.18873175 38.22615403 12.18673706 39.55993652 C12.17915506 43.04516376 12.15955436 46.53022035 12.1373291 50.01538086 C12.11675256 53.58184502 12.10771027 57.14833715 12.09765625 60.71484375 C12.07630243 67.69408695 12.04116561 74.67318955 12 81.65234375 C6.72 81.65234375 1.44 81.65234375 -4 81.65234375 C-4.01458252 79.87142334 -4.02916504 78.09050293 -4.04418945 76.25561523 C-4.09596667 70.35223102 -4.16128633 64.44907884 -4.23571491 58.54594326 C-4.28032303 54.96904722 -4.31959953 51.39226257 -4.34643555 47.81518555 C-4.37256487 44.35902568 -4.4130335 40.90329665 -4.46318626 37.44740486 C-4.4878363 35.49615884 -4.49787487 33.54474579 -4.50764465 31.59336853 C-4.63993308 23.56873426 -5.06547521 18.1274389 -10.375 11.83984375 C-14.69771933 8.23757764 -18.25061386 7.16792832 -23.9453125 7.33984375 C-29.07403975 8.11987831 -32.21806099 10.66463131 -35.375 14.65234375 C-37.78242362 19.09681812 -38.13129374 22.58031785 -38.20532227 27.61425781 C-38.22526749 28.81520081 -38.24521271 30.0161438 -38.26576233 31.253479 C-38.29083107 33.19115143 -38.29083107 33.19115143 -38.31640625 35.16796875 C-38.33698963 36.50747296 -38.35798646 37.84697088 -38.37937927 39.1864624 C-38.43445709 42.70449716 -38.48392906 46.22258915 -38.53222656 49.74072266 C-38.58254625 53.33371039 -38.63817756 56.92661548 -38.69335938 60.51953125 C-38.80076602 67.56373172 -38.90175838 74.60800863 -39 81.65234375 C-44.28 81.65234375 -49.56 81.65234375 -55 81.65234375 C-55.04540318 74.26280097 -55.08200305 66.87333596 -55.10362434 59.48368263 C-55.1140078 56.05140576 -55.12806596 52.61923027 -55.15087891 49.18701172 C-55.17701074 45.23015609 -55.18651771 41.27333978 -55.1953125 37.31640625 C-55.20563507 36.0993399 -55.21595764 34.88227356 -55.22659302 33.62832642 C-55.2281898 21.3619627 -53.88922488 12.31646664 -45.625 2.96484375 C-44.325625 1.82015625 -44.325625 1.82015625 -43 0.65234375 C-42.52175781 0.22050781 -42.04351563 -0.21132813 -41.55078125 -0.65625 C-29.00542532 -10.89301743 -12.55379588 -8.45910074 0 0 Z " fill="#F05E3F" transform="translate(693,62.34765625)"/>
<path d="M0 0 C6.98527208 7.47053778 9.70889874 14.79721953 9.68774414 25.01489258 C9.68763084 26.8462249 9.68763084 26.8462249 9.68751526 28.71455383 C9.68235397 30.02304794 9.67719269 31.33154205 9.671875 32.6796875 C9.67000836 34.04017586 9.66858562 35.4006649 9.66758728 36.76115417 C9.6637815 40.33020912 9.65396789 43.89922294 9.6428833 47.46826172 C9.63262738 51.1149032 9.62808072 54.76155136 9.62304688 58.40820312 C9.61234378 65.55470587 9.59476279 72.70117403 9.57421875 79.84765625 C4.29421875 79.84765625 -0.98578125 79.84765625 -6.42578125 79.84765625 C-6.43512695 78.04167969 -6.44447266 76.23570312 -6.45410156 74.375 C-6.48973492 68.38375015 -6.54359956 62.39289233 -6.60968399 56.4019165 C-6.64906227 52.77232145 -6.68129744 49.14296548 -6.69677734 45.51318359 C-6.71200842 42.00506398 -6.74656558 38.49760208 -6.79409027 34.98977661 C-6.81597724 33.01143422 -6.81824943 31.03290592 -6.82012939 29.05444336 C-6.93605797 21.87800271 -7.44083726 16.89826508 -11.42578125 10.84765625 C-16.14648907 7.09035819 -20.13528719 5.41394047 -26.23046875 5.50390625 C-30.2911259 6.13973869 -33.37844691 8.15841881 -36.42578125 10.84765625 C-39.72280924 16.05908759 -40.54020485 20.64054853 -40.63110352 26.71777344 C-40.65104874 27.89869568 -40.67099396 29.07961792 -40.69154358 30.29632568 C-40.70825607 31.56623352 -40.72496857 32.83614136 -40.7421875 34.14453125 C-40.7629686 35.44843811 -40.78374969 36.75234497 -40.80516052 38.09576416 C-40.86023361 41.55461433 -40.90970765 45.01352265 -40.95800781 48.47247314 C-41.00833097 52.00513863 -41.06396047 55.53772014 -41.11914062 59.0703125 C-41.22654149 65.9960224 -41.32753558 72.92181049 -41.42578125 79.84765625 C-46.37578125 79.84765625 -51.32578125 79.84765625 -56.42578125 79.84765625 C-56.53920003 71.54540149 -56.63073498 63.24375922 -56.68484211 54.94093513 C-56.71082416 51.08467721 -56.74600943 47.22898139 -56.80297852 43.37304688 C-56.85771106 39.64472893 -56.88728723 35.91694813 -56.90016747 32.18825912 C-56.90933419 30.77298411 -56.92723325 29.35773514 -56.95443153 27.9426918 C-57.14499426 17.60772638 -55.65253062 10.67058313 -49.57421875 2.296875 C-35.73157573 -11.45429681 -14.98608111 -13.29682881 0 0 Z " fill="#F05F3F" transform="translate(381.42578125,64.15234375)"/>
<path d="M0 0 C5.28 0 10.56 0 16 0 C16.01401855 2.71682007 16.01401855 2.71682007 16.02832031 5.48852539 C16.06392879 11.49175645 16.11777781 17.494595 16.18390274 23.49755192 C16.22331 27.13502291 16.25553108 30.77225428 16.27099609 34.40991211 C16.28620792 37.92451152 16.32073154 41.43845188 16.36830902 44.95275688 C16.39023371 46.93723893 16.39246984 48.92190714 16.39434814 50.9065094 C16.50537675 57.78004745 16.76885421 62.46053939 21 68 C24.45613772 70.89705662 28.58440711 72.23044489 33.0625 72.5 C37.90643419 71.88489725 40.0588543 70.85926257 44 68 C47.57765176 63.22979765 48.11787765 58.97618011 48.20532227 53.12988281 C48.22526749 51.94896057 48.24521271 50.76803833 48.26576233 49.55133057 C48.28247482 48.28142273 48.29918732 47.01151489 48.31640625 45.703125 C48.33718735 44.39921814 48.35796844 43.09531128 48.37937927 41.75189209 C48.43445236 38.29304192 48.4839264 34.8341336 48.53222656 31.37518311 C48.58254972 27.84251762 48.63817922 24.30993611 48.69335938 20.77734375 C48.80076024 13.85163385 48.90175433 6.92584576 49 0 C53.95 0 58.9 0 64 0 C64.11344229 8.04148775 64.20496683 16.08234235 64.25906086 24.12441826 C64.28503731 27.85961769 64.32021169 31.59423631 64.37719727 35.32910156 C64.4319507 38.94071191 64.46151017 42.55176743 64.47438622 46.16376114 C64.48354931 47.53438158 64.50144105 48.90497531 64.52865028 50.27535629 C64.72469786 60.56857039 63.35814718 67.98813075 56.5 75.875 C55.675 76.57625 54.85 77.2775 54 78 C53.278125 78.680625 52.55625 79.36125 51.8125 80.0625 C43.39152717 85.86361462 35.11343246 87.11724916 25 86 C17.23223407 84.26660732 11.1738197 79.97999673 6 74 C1.89007892 67.46728535 -0.1297056 61.73986613 -0.11352539 54.03808594 C-0.11344986 52.83714294 -0.11337433 51.63619995 -0.11329651 50.39886475 C-0.10813522 49.10708313 -0.10297394 47.81530151 -0.09765625 46.484375 C-0.09579017 45.14487765 -0.09436716 43.80537962 -0.09336853 42.46588135 C-0.08955835 38.94777528 -0.07974091 35.42971079 -0.06866455 31.91162109 C-0.05841817 28.31869061 -0.053864 24.72575339 -0.04882812 21.1328125 C-0.03811725 14.08852308 -0.02053262 7.04426863 0 0 Z " fill="#EF5E3F" transform="translate(167,59)"/>
<path d="M0 0 C2.19433594 1.61035156 2.19433594 1.61035156 4 4 C4.45410156 7.11621094 4.45410156 7.11621094 4.390625 10.734375 C4.37128906 12.67763672 4.37128906 12.67763672 4.3515625 14.66015625 C4.31814366 16.02344824 4.28428391 17.38672949 4.25 18.75 C4.22992707 20.12888064 4.21167767 21.50778912 4.1953125 22.88671875 C4.14816016 26.25811138 4.0764174 29.62914373 4 33 C8.95 33 13.9 33 19 33 C19 37.95 19 42.9 19 48 C14.05 48 9.1 48 4 48 C4.06873648 55.35100616 4.15663549 62.70143585 4.26245117 70.05200195 C4.29574471 72.55356465 4.32376268 75.05520327 4.34643555 77.55688477 C4.3798996 81.14893002 4.43221243 84.74027666 4.48828125 88.33203125 C4.49467117 89.45398392 4.5010611 90.57593658 4.50764465 91.73188782 C4.52743881 92.77274033 4.54723297 93.81359283 4.56762695 94.88598633 C4.57873001 95.80309891 4.58983307 96.72021149 4.60127258 97.66511536 C5.07470215 100.43744396 5.77527355 101.32924194 8 103 C10.27161255 103.57323807 10.27161255 103.57323807 12.6875 103.6875 C14.110625 103.790625 15.53375 103.89375 17 104 C17 108.62 17 113.24 17 118 C10.83178767 119.54205308 4.70818533 119.90272844 -1.375 117.875 C-6.13643278 114.47397659 -9.18528537 110.54072791 -11 105 C-11.24050903 102.23478699 -11.24050903 102.23478699 -11.22705078 99.19995117 C-11.22682419 97.48874336 -11.22682419 97.48874336 -11.22659302 95.7429657 C-11.21627045 94.52196671 -11.20594788 93.30096771 -11.1953125 92.04296875 C-11.1924826 90.78486893 -11.18965271 89.5267691 -11.18673706 88.23054504 C-11.17745121 84.89812618 -11.15950476 81.56598453 -11.1373291 78.23364258 C-11.11681017 74.82831203 -11.10772246 71.42295277 -11.09765625 68.01757812 C-11.0756164 61.34497582 -11.0421539 54.67250391 -11 48 C-11.60328125 48.02320313 -12.2065625 48.04640625 -12.828125 48.0703125 C-14.02695312 48.09738281 -14.02695312 48.09738281 -15.25 48.125 C-16.03890625 48.14820313 -16.8278125 48.17140625 -17.640625 48.1953125 C-20.24614317 47.97962391 -21.79986977 47.3921178 -24 46 C-25.54586876 42.90826248 -25.29359521 40.40570448 -25 37 C-23.625 34.5625 -23.625 34.5625 -21 33 C-18.55615234 32.84741211 -18.55615234 32.84741211 -15.8359375 32.90234375 C-14.47927979 32.92349243 -14.47927979 32.92349243 -13.09521484 32.94506836 C-12.0580835 32.97225952 -12.0580835 32.97225952 -11 33 C-11.02094727 32.14245117 -11.04189453 31.28490234 -11.06347656 30.40136719 C-11.13176527 27.21081528 -11.18185513 24.02063654 -11.21972656 20.82958984 C-11.23980642 19.4502332 -11.26707666 18.07096131 -11.30175781 16.69189453 C-11.35042817 14.70643021 -11.37086418 12.72033746 -11.390625 10.734375 C-11.41157227 9.54038086 -11.43251953 8.34638672 -11.45410156 7.11621094 C-11 4 -11 4 -9.19433594 1.61035156 C-5.99750102 -0.7357013 -3.86307374 -0.55186768 0 0 Z " fill="#EF5F3F" transform="translate(427,26)"/>
<path d="M0 0 C3.37453898 -0.14611313 6.74825766 -0.23433467 10.125 -0.3125 C11.07632813 -0.35439453 12.02765625 -0.39628906 13.0078125 -0.43945312 C20.96505739 -0.57759974 20.96505739 -0.57759974 24.6171875 2.39453125 C29.16782409 7.37039126 28.29177105 12.32442524 28.375 18.8125 C28.43107422 20.4531543 28.43107422 20.4531543 28.48828125 22.12695312 C28.57509264 30.04125803 28.57509264 30.04125803 26.89550781 32.84130859 C25.5390625 34.19921875 25.5390625 34.19921875 23 36 C22.67 36.33 22.34 36.66 22 37 C17.94765266 37.3934733 13.88123397 37.41839865 9.8125 37.5 C8.67490234 37.55414063 7.53730469 37.60828125 6.36523438 37.6640625 C-1.60349198 37.79431605 -1.60349198 37.79431605 -5.12597656 35.79077148 C-8.48352455 32.4595319 -9.34557305 29.38580991 -9.5859375 24.72265625 C-9.54647514 22.83504024 -9.47551768 20.94785081 -9.375 19.0625 C-9.34792969 18.09248047 -9.32085937 17.12246094 -9.29296875 16.12304688 C-9.22272145 13.74634651 -9.12444649 11.37437529 -9 9 C-6.6875 8.375 -6.6875 8.375 -4 8 C-3.01 8.66 -2.02 9.32 -1 10 C-0.66638563 12.52129801 -0.48776807 14.84723405 -0.4375 17.375 C-0.34271524 23.46377715 -0.34271524 23.46377715 2 29 C4.45840605 29.02691685 6.91651882 29.04679802 9.375 29.0625 C10.07367188 29.07087891 10.77234375 29.07925781 11.4921875 29.08789062 C15.37295376 29.1835442 15.37295376 29.1835442 19 28 C20.2062252 24.38132441 20.10816918 21.07493749 20.0625 17.3125 C20.05798828 16.61060547 20.05347656 15.90871094 20.04882812 15.18554688 C20.03706927 13.45699462 20.01913454 11.72848635 20 10 C14.69756534 8.67943167 9.59816586 9.10917428 4.1796875 9.35546875 C1 9 1 9 -1.0546875 7.30078125 C-2 5 -2 5 -1.1875 2.25 C-0.795625 1.5075 -0.40375 0.765 0 0 Z " fill="#ED5F40" transform="translate(133,122)"/>
<path d="M0 0 C7.23787013 10.8568052 5.4584795 26.26628501 5.39111328 38.703125 C5.37497458 42.25559522 5.39105186 45.80693849 5.41015625 49.359375 C5.40817471 51.64062748 5.40433289 53.92187927 5.3984375 56.203125 C5.40451019 57.25332825 5.41058289 58.30353149 5.4168396 59.38555908 C5.35804658 65.59307513 4.85108186 71.37761879 2 77 C1.01 77.495 1.01 77.495 0 78 C0 52.26 0 26.52 0 0 Z " fill="#E96147" transform="translate(144,32)"/>
<path d="M0 0 C0.99 0 1.98 0 3 0 C3 0.99 3 1.98 3 3 C3.99 3 4.98 3 6 3 C6.33 2.34 6.66 1.68 7 1 C7 2.32 7 3.64 7 5 C6.34 5 5.68 5 5 5 C5 20.84 5 36.68 5 53 C4.34 53 3.68 53 3 53 C3 53.66 3 54.32 3 55 C2.34 55 1.68 55 1 55 C1 56.65 1 58.3 1 60 C0.67 60 0.34 60 0 60 C0 40.2 0 20.4 0 0 Z " fill="#E9623F" transform="translate(167,59)"/>
<path d="M0 0 C2.4375 1.3125 2.4375 1.3125 4 3 C4 3.99 4 4.98 4 6 C2.68 6 1.36 6 0 6 C0 5.34 0 4.68 0 4 C-1.65 4 -3.3 4 -5 4 C-5.33 4.99 -5.66 5.98 -6 7 C-5.37351562 7.19335938 -4.74703125 7.38671875 -4.1015625 7.5859375 C-2.87566406 7.97652344 -2.87566406 7.97652344 -1.625 8.375 C-0.81289063 8.63023437 -0.00078125 8.88546875 0.8359375 9.1484375 C3 10 3 10 5 12 C5.55851531 17.25004391 5.55851531 17.25004391 3.7578125 19.66796875 C0.55785499 22.09282544 -3.16994021 21.5185099 -7 21 C-9.5625 19.6875 -9.5625 19.6875 -11 18 C-11 17.01 -11 16.02 -11 15 C-9.68 15 -8.36 15 -7 15 C-6.67 15.66 -6.34 16.32 -6 17 C-4.02 17 -2.04 17 0 17 C0 16.01 0 15.02 0 14 C-4.95 12.02 -4.95 12.02 -10 10 C-10.35915493 3.65492958 -10.35915493 3.65492958 -8.9375 1.0625 C-5.87116726 -0.61903731 -3.42486249 -0.36051184 0 0 Z " fill="#FFFFFF" transform="translate(427,158)"/>
<path d="M0 0 C2.75806231 2.39032067 2.98155872 3.85246979 3.4375 7.5 C3 11 3 11 1.4375 13.4375 C-1.96719488 15.61999672 -4.03430012 15.63734462 -8 15 C-10.5 12.9375 -10.5 12.9375 -12 10 C-11.93768424 6.38568571 -11.78958699 4.02989607 -9.5625 1.125 C-6.10020452 -1.36785275 -4.10429186 -1.08889376 0 0 Z M-6 3 C-8.2491908 4.82703227 -8.2491908 4.82703227 -8.25 7.5 C-8.2491908 10.17296773 -8.2491908 10.17296773 -6 12 C-3.94285168 11.98617135 -3.94285168 11.98617135 -2 11 C-0.5 9.25 -0.5 9.25 0 7 C-0.78309467 4.76529595 -0.78309467 4.76529595 -2 3 C-3.32 3 -4.64 3 -6 3 Z " fill="#FFFFFF" transform="translate(626,164)"/>
<path d="M0 0 C4.28578067 1.49070632 4.28578067 1.49070632 5.875 4 C7.01391039 8.1000774 7.33140324 10.10621033 5.375 13.9375 C2.875 16 2.875 16 -0.625 16.5625 C-4.125 16 -4.125 16 -6.5625 14.4375 C-8.75521887 11.01685857 -8.75507693 8.99048721 -8.125 5 C-5.59445579 1.427467 -4.46056767 0 0 0 Z M-3.125 4 C-4.41542763 6.26601865 -4.41542763 6.26601865 -5.125 9 C-3.86147948 11.32511472 -3.86147948 11.32511472 -2.125 13 C0.63141416 12.50243908 0.63141416 12.50243908 2.875 11 C3.1250773 8.54190002 3.1250773 8.54190002 2.875 6 C2.215 5.34 1.555 4.68 0.875 4 C-0.445 4 -1.765 4 -3.125 4 Z " fill="#FFFFFF" transform="translate(463.125,163)"/>
<path d="M0 0 C0.33 1.32 0.66 2.64 1 4 C0.030625 3.814375 -0.93875 3.62875 -1.9375 3.4375 C-2.948125 3.293125 -3.95875 3.14875 -5 3 C-5.33 3.33 -5.66 3.66 -6 4 C-2.535 5.485 -2.535 5.485 1 7 C1 9.31 1 11.62 1 14 C-2.04983996 15.52491998 -4.6423369 15.23562548 -8 15 C-9.9375 13.625 -9.9375 13.625 -11 12 C-11 11.34 -11 10.68 -11 10 C-9.68 10 -8.36 10 -7 10 C-7 10.66 -7 11.32 -7 12 C-5.68 11.34 -4.36 10.68 -3 10 C-5.31 9.01 -7.62 8.02 -10 7 C-10.1875 4.125 -10.1875 4.125 -10 1 C-6.1496895 -1.56687367 -4.41430237 -0.83288724 0 0 Z " fill="#FFFFFF" transform="translate(699,164)"/>
<path d="M0 0 C2.35119399 3.52679099 2.21443452 5.02879485 2.125 9.1875 C2.10695313 10.27417969 2.08890625 11.36085937 2.0703125 12.48046875 C2.03550781 13.72763672 2.03550781 13.72763672 2 15 C0.68 15 -0.64 15 -2 15 C-2 11.04 -2 7.08 -2 3 C-3.32 3.33 -4.64 3.66 -6 4 C-6.33 7.63 -6.66 11.26 -7 15 C-7.99 15 -8.98 15 -10 15 C-10.1080023 12.89695523 -10.18558987 10.79233091 -10.25 8.6875 C-10.31960938 6.92986328 -10.31960938 6.92986328 -10.390625 5.13671875 C-10 2 -10 2 -8.1796875 0.07421875 C-5.0900722 -1.44844112 -3.24193379 -0.9866755 0 0 Z " fill="#FFFFFF" transform="translate(663,164)"/>
<path d="M0 0 C1.32 0 2.64 0 4 0 C4.33 3.63 4.66 7.26 5 11 C5.99 11.33 6.98 11.66 8 12 C8.33 8.04 8.66 4.08 9 0 C9.99 0 10.98 0 12 0 C12.08078641 2.12438339 12.13909141 4.2496323 12.1875 6.375 C12.22230469 7.55835938 12.25710938 8.74171875 12.29296875 9.9609375 C12.19628906 10.96382812 12.09960938 11.96671875 12 13 C8.52957297 15.31361802 7.08165827 15.51020728 3 15 C0.72052301 12.73646341 0.0439346 11.41942901 -0.29296875 8.203125 C-0.25816406 7.22859375 -0.22335937 6.2540625 -0.1875 5.25 C-0.16042969 4.26515625 -0.13335938 3.2803125 -0.10546875 2.265625 C-0.07066406 1.51796875 -0.03585937 0.7703125 0 0 Z " fill="#FFFFFF" transform="translate(520,164)"/>
<path d="M0 0 C0.99 0 1.98 0 3 0 C3 1.98 3 3.96 3 6 C3.99 6 4.98 6 6 6 C6 6.99 6 7.98 6 9 C5.01 9 4.02 9 3 9 C3.12375 10.299375 3.2475 11.59875 3.375 12.9375 C3.44460938 13.66839844 3.51421875 14.39929688 3.5859375 15.15234375 C3.72257813 15.76207031 3.85921875 16.37179688 4 17 C4.66 17.33 5.32 17.66 6 18 C6 18.99 6 19.98 6 21 C4.33388095 21.042721 2.66617115 21.04063832 1 21 C0 20 0 20 -0.09765625 17.49609375 C-0.08605469 16.48675781 -0.07445312 15.47742188 -0.0625 14.4375 C-0.05347656 13.42558594 -0.04445313 12.41367188 -0.03515625 11.37109375 C-0.02355469 10.58863281 -0.01195312 9.80617187 0 9 C-0.66 9 -1.32 9 -2 9 C-2 8.01 -2 7.02 -2 6 C-1.34 6 -0.68 6 0 6 C0 4.02 0 2.04 0 0 Z " fill="#FFFFFF" transform="translate(558,158)"/>
<path d="M0 0 C1.32 0.33 2.64 0.66 4 1 C4 7.6 4 14.2 4 21 C2.68 21 1.36 21 0 21 C0 14.07 0 7.14 0 0 Z " fill="#FFFFFF" transform="translate(493,158)"/>
<path d="M0 0 C9.9 0 19.8 0 30 0 C26.5328102 3.4671898 25.97105979 3.3829537 21.30859375 3.3984375 C20.19935547 3.40230469 19.09011719 3.40617188 17.94726562 3.41015625 C16.78904297 3.39855469 15.63082031 3.38695312 14.4375 3.375 C13.27541016 3.38660156 12.11332031 3.39820313 10.91601562 3.41015625 C9.80806641 3.40628906 8.70011719 3.40242187 7.55859375 3.3984375 C6.54079834 3.39505371 5.52300293 3.39166992 4.47436523 3.38818359 C3.65782471 3.26008301 2.84128418 3.13198242 2 3 C1.34 2.01 0.68 1.02 0 0 Z " fill="#E3624E" transform="translate(128,156)"/>
<path d="M0 0 C0.99 0 1.98 0 3 0 C3 0.99 3 1.98 3 3 C2.34 3 1.68 3 1 3 C1 19.5 1 36 1 53 C1.66 53 2.32 53 3 53 C3 53.66 3 54.32 3 55 C2.34 55 1.68 55 1 55 C1 56.65 1 58.3 1 60 C0.67 60 0.34 60 0 60 C0 40.2 0 20.4 0 0 Z " fill="#C56F5C" transform="translate(167,59)"/>
<path d="M0 0 C1.32 0 2.64 0 4 0 C4 4.95 4 9.9 4 15 C2.68 15 1.36 15 0 15 C0 10.05 0 5.1 0 0 Z " fill="#FFFFFF" transform="translate(587,164)"/>
<path d="M0 0 C1.32 0 2.64 0 4 0 C5.76462683 3.08809695 6 4.23312136 6 8 C5.34 8 4.68 8 4 8 C4 7.34 4 6.68 4 6 C3.34 6 2.68 6 2 6 C2 5.34 2 4.68 2 4 C1.34 4 0.68 4 0 4 C0 2.68 0 1.36 0 0 Z " fill="#E66438" transform="translate(692,68)"/>
<path d="M0 0 C0 1.32 0 2.64 0 4 C-2.64 4 -5.28 4 -8 4 C-8 3.34 -8 2.68 -8 2 C-5.09399739 0.74335022 -3.20395416 0 0 0 Z " fill="#E0693A" transform="translate(152,122)"/>
<path d="M0 0 C0.66 0 1.32 0 2 0 C2 0.66 2 1.32 2 2 C3.98 2 5.96 2 8 2 C8.33 2.66 8.66 3.32 9 4 C6.03 4 3.06 4 0 4 C0 2.68 0 1.36 0 0 Z " fill="#F55B36" transform="translate(124,144)"/>
<path d="M0 0 C2 1.8125 2 1.8125 4 4 C4 4.99 4 5.98 4 7 C2.68 7 1.36 7 0 7 C0 4.69 0 2.38 0 0 Z " fill="#E95F51" transform="translate(698,69)"/>
<path d="M0 0 C-0.33 1.32 -0.66 2.64 -1 4 C-1.99 4 -2.98 4 -4 4 C-4 3.34 -4 2.68 -4 2 C-4.66 1.67 -5.32 1.34 -6 1 C-4 0 -4 0 0 0 Z " fill="#E9612F" transform="translate(702,76)"/>
<path d="M0 0 C0.99 0.33 1.98 0.66 3 1 C3 1.99 3 2.98 3 4 C1.68 3.67 0.36 3.34 -1 3 C-0.67 2.01 -0.34 1.02 0 0 Z " fill="#FFFFFF" transform="translate(588,158)"/>
</svg>
