<svg xmlns="http://www.w3.org/2000/svg" width="2500" height="1058" viewBox="0 266.492 612 259.017"><title>Artboard 1</title><path d="M43.714 401.93c0 10.035-4.105 23.491-16.27 23.491a8.589 8.589 0 0 1-9.692-9.388c0-11.784 17.257-14.103 25.962-14.103m17.448 34.477v-55.65c0-18.056-11.86-24.289-28.434-24.289s-29.802 6.88-29.802 24.783h17.79c-.715-5.897 3.486-11.259 9.385-11.974a10.78 10.78 0 0 1 2.589 0c9.009 0 11.023 6.538 11.023 14.255v7.603C25.962 391.781 0 394.099 0 417.743c0 13.305 10.529 20.527 22.808 20.527 8.553 0 16.421-2.813 20.374-10.834h.305v9.009h17.447m54.244-51.431h19.386c0-19.234-10.644-28.585-29.726-28.585-23.453 0-35.808 14.748-35.808 37.404 0 27.255 13.95 44.36 41.813 44.36a76.514 76.514 0 0 0 22.808-3.802v-10.909a40.156 40.156 0 0 1-13.114 1.938c-20.755 0-32.196-15.205-32.196-34.819 0-9.352 3.459-21.325 14.938-21.325 9.503 0 11.822 7.603 11.822 15.737m70.019.001h19.387c0-19.234-10.682-28.585-29.726-28.585-23.492 0-35.808 14.748-35.808 37.404 0 27.255 13.95 44.36 41.813 44.36a76.387 76.387 0 0 0 22.808-3.802v-10.909a40.01 40.01 0 0 1-13.152 1.938c-20.679 0-32.197-15.205-32.197-34.819 0-9.352 3.497-21.325 14.978-21.325 9.503 0 11.821 7.603 11.821 15.737m71.464-3.458h-28.434c.563-7.682 7.01-13.596 14.711-13.494 7.003-.645 13.203 4.511 13.847 11.514.061.658.07 1.32.027 1.98m17.258 11.024v-4.409c0-19.007-9.845-31.702-29.726-31.702-23.302 0-33.526 14.597-33.526 36.796 0 25.772 11.669 45.007 39.418 45.007a69.26 69.26 0 0 0 21.819-3.117v-12.658a46.663 46.663 0 0 1-14.9 2.927c-17.714 0-29.422-16.231-29.422-32.805h46.375m53.978 43.827h18.284v-54.206c0-13.456-6.311-25.771-21.211-25.771a24.25 24.25 0 0 0-23.149 16.421h-.305v-14.673h-18.321v78.229h18.283v-33.831c0-10.529 5.246-29.079 18.36-29.079a7.298 7.298 0 0 1 5.284 1.482c3.078 2.927 2.774 12.962 2.774 16.726v44.702m55.993-65.533h23.226v-12.696h-23.226v-25.925l-18.132 7.375v18.512h-15.205v12.734h15.205v45.995c0 16.27 7.944 21.515 23.948 21.515a90.514 90.514 0 0 0 14.9-1.292v-13a34.82 34.82 0 0 1-8.362 1.292c-11.404 0-12.354-8.362-12.354-17.562v-36.948m76.025 65.533h18.246v-78.229H459.95v33.869c0 10.529-5.246 29.08-18.437 29.08a7.338 7.338 0 0 1-5.245-1.445c-3.155-2.965-2.775-13-2.775-16.764v-44.74h-18.208v54.244c0 13.456 6.196 25.772 21.173 25.772a24.671 24.671 0 0 0 23.188-16.422h.305v14.597m47.971-34.211c0-18.398 6.88-26.608 25.582-26.608v-19.007c-13.114 0-19.234 5.437-25.278 16.231h-.304v-14.597h-18.246v78.229h18.246v-34.211m75.265-20.525h-28.586c.582-7.688 7.041-13.597 14.749-13.495 7.005-.623 13.189 4.551 13.813 11.557.056.644.065 1.291.024 1.938m17.257 11.023v-4.562c0-19.007-9.845-31.702-29.726-31.702-23.302 0-33.488 14.597-33.488 36.796 0 25.772 11.669 45.007 39.381 45.007a69.77 69.77 0 0 0 21.856-3.117v-12.658a46.755 46.755 0 0 1-14.9 2.927c-17.79 0-29.46-16.231-29.46-32.805h46.489M350.626 266.492v12.886l41.624 16.155-41.624 16.004v12.848l56.715-23.035v-11.784l-56.715-23.074M24.974 512.47v-19.805H7.603v19.805H2.889v-41.813h4.714v18.17h17.371v-18.284h4.752v41.813l-4.752.114zm11.404-36.454v-5.474h5.436v5.474h-5.436zm.684 36.454v-28.928h3.991v28.928h-3.991zm18.018 12.659a37.36 37.36 0 0 1-7.831-.988v-4.182a16.663 16.663 0 0 0 7.223 1.711c6.69 0 8.743-3.422 8.743-9.617v-5.094a7.606 7.606 0 0 1-7.603 5.512c-7.945 0-9.77-7.603-9.77-14.255s2.015-15.205 9.921-15.205a7.604 7.604 0 0 1 7.603 5.436v-4.903h4.144v29.004c-.304 8.21-4.258 12.582-12.582 12.582h.152zm1.33-38.773c-5.284 0-6.006 8.134-6.006 11.897s.722 10.758 5.892 10.758 6.919-7.603 6.919-11.404-1.787-11.251-6.957-11.251h.152zm33.717 26.114v-16.041c0-3.27.494-9.428-4.257-9.428-6.044 0-8.325 9.009-8.325 13.532v11.898h-4.144v-41.813h4.144v19.69a9.01 9.01 0 0 1 9.047-7.337c5.094 0 7.603 4.372 7.603 8.934v20.641l-4.068-.076zm34.211.684a7.603 7.603 0 0 1-7.602-5.397v17.752h-4.41v-41.813h4.144v4.941a7.83 7.83 0 0 1 7.603-5.588c8.325 0 9.921 8.135 9.921 14.901s-1.938 15.204-9.807 15.204h.151zm-.912-26.608c-5.207 0-6.804 7.603-6.804 11.404s1.216 11.821 6.69 11.821 5.93-8.78 5.93-12.772c0-3.991-.685-10.643-5.968-10.643l.152.19zm19.007 8.932v1.711c0 6.311 3.154 12.696 10.263 12.696a22.462 22.462 0 0 0 5.702-.798v3.421c-2.149.61-4.38.893-6.614.836-10.035 0-14.103-6.729-14.103-16.117 0-7.603 2.813-14.179 11.403-14.179 6.729 0 10.074 4.638 10.074 10.985v1.407l-16.725.038zm6.386-8.932a6.081 6.081 0 0 0-6.082 5.474h11.632a5.359 5.359 0 0 0-5.892-5.663l.342.189zm19.044 13.988v11.975h-4.143v-28.966h4.143v5.588a9.694 9.694 0 0 1 9.655-6.272v4.448c-7.336-.001-9.655 6.879-9.655 13.227zm28.015-26.608c-6.576 0-6.082 4.752-6.082 9.731h8.324v3.459h-8.324v25.469h-4.105v-25.469h-4.865v-3.459h4.865v-4.105a8.4 8.4 0 0 1 9.464-9.161c1.649 0 3.293.178 4.904.532v3.802a12.529 12.529 0 0 0-4.181-.799zm15.205 39.304c-8.934 0-11.784-7.298-11.784-15.205 0-7.906 2.851-15.204 11.784-15.204s11.897 7.336 11.897 15.204c0 7.869-2.774 15.129-11.783 15.129l-.114.076zm0-26.608c-6.006 0-7.032 7.07-7.032 11.67s1.026 11.67 7.032 11.67 7.184-6.994 7.184-11.67-1.025-11.936-7.069-11.936l-.115.266zm21.211 13.912v11.975h-4.22v-28.966h4.144v5.588a9.73 9.73 0 0 1 9.655-6.272v4.448c-7.26-.001-9.579 6.879-9.579 13.227zm44.55 11.975V496.43c0-3.27.495-9.428-4.257-9.428-5.359 0-7.223 9.541-7.223 13.57v11.898h-4.105v-16.041c0-3.27.494-9.428-4.257-9.428-4.752 0-7.223 9.731-7.223 13.532v11.898h-4.144v-28.89h4.144v6.69c1.141-4.144 3.345-7.337 8.097-7.337a6.614 6.614 0 0 1 7.299 6.615 8.78 8.78 0 0 1 8.515-6.614c5.094 0 7.603 4.372 7.603 8.934v20.641l-4.449.039zm25.772 0v-3.802a10.22 10.22 0 0 1-8.856 4.485 7.299 7.299 0 0 1-7.603-8.058c0-6.614 8.438-9.009 13.798-9.009a14.77 14.77 0 0 0 2.852 0v-.608c0-4.295.304-8.933-5.474-8.933-3.383 0-5.474 1.141-5.892 4.6h-4.904c0-5.854 5.246-8.097 10.416-8.097 6.575 0 9.73 2.851 9.73 9.313v20.298l-4.067-.189zm-2.546-13.115c-3.801 0-9.465 1.521-9.465 6.158a3.801 3.801 0 0 0 4.068 4.181 7.604 7.604 0 0 0 6.767-4.485 12.047 12.047 0 0 0 1.102-5.854h-2.472zm29.65 13.115V496.43c0-3.27.494-9.428-4.258-9.428-5.778 0-8.211 9.009-8.211 13.57v11.898h-4.105v-28.928h4.144v6.69a9.01 9.01 0 0 1 9.047-7.337c5.094 0 7.412 4.372 7.412 8.934v20.641l-4.029.039zm25.924-20.109c0-3.346-1.444-6.007-5.17-6.007-5.283 0-6.842 5.778-6.842 10.111 0 7.603 3.27 13.267 11.403 13.267a15.185 15.185 0 0 0 4.676-.608v3.27a19.679 19.679 0 0 1-6.006.798c-9.959 0-14.9-6.158-14.9-15.813 0-7.907 2.927-14.483 11.783-14.483 4.806-.649 9.229 2.719 9.879 7.524.089.656.103 1.32.043 1.979l-4.866-.038zm11.404 2.927v1.71c0 6.311 3.154 12.696 10.263 12.696a22.417 22.417 0 0 0 5.702-.798v3.421a22.182 22.182 0 0 1-6.652.836c-10.035 0-14.103-6.728-14.103-16.117 0-7.603 2.775-14.179 11.404-14.179 6.728 0 10.073 4.638 10.073 10.986v1.406l-16.687.039zm6.386-8.934a6.045 6.045 0 0 0-6.082 5.475h11.594a5.36 5.36 0 0 0-5.435-5.512l-.077.037zm13.57 26.116v-6.082h6.082v6.082h-6.082zm39.343-1.141a26.643 26.643 0 0 1-8.743 1.141h-7.906v-41.813h9.428c13.494 0 17.219 8.742 17.219 20.83.076 7.831-1.368 16.878-9.883 19.805l-.115.037zm-2.357-35.922a20.129 20.129 0 0 0-6.881-.912h-2.66v34.211h3.23a17.73 17.73 0 0 0 7.108-1.141c5.816-2.66 6.387-10.415 6.387-15.927s-.532-13.95-7.07-16.27l-.114.039zm20.832 19.881v1.71c0 6.311 3.154 12.696 10.301 12.696a22.284 22.284 0 0 0 5.702-.798v3.421c-2.149.612-4.38.894-6.614.836-10.035 0-14.103-6.728-14.103-16.117 0-7.603 2.813-14.179 11.403-14.179 6.767 0 10.111 4.638 10.111 10.986v1.406l-16.8.039zm6.385-8.934a6.081 6.081 0 0 0-6.082 5.475h11.632a5.36 5.36 0 0 0-5.435-5.512l-.115.037zm15.661 26.116v-41.813h4.144v41.813h-4.144zm10.833-36.455v-5.512h5.475v5.474l-5.475.038zm.685 36.455v-28.966h4.371v28.928l-4.371.038zm22.541 0h-4.181l-10.948-28.928h4.562l8.516 22.808 7.602-22.808h4.448l-9.999 28.928zm15.434-17.182v1.71c0 6.311 3.155 12.696 10.264 12.696a22.327 22.327 0 0 0 5.701-.798v3.421c-2.149.61-4.38.893-6.614.836-10.035 0-14.103-6.728-14.103-16.117 0-7.603 2.813-14.179 11.404-14.179 6.728 0 10.111 4.638 10.111 10.986v1.406l-16.763.039zm6.385-8.934a6.081 6.081 0 0 0-6.082 5.475h11.708a5.322 5.322 0 0 0-5.55-5.512l-.076.037zm19.767 14.141v11.975h-4.105v-28.966h4.105v5.588a9.73 9.73 0 0 1 9.655-6.272v4.448c-7.336-.001-9.655 6.879-9.655 13.227zm16.269-5.245v1.71c0 6.311 3.193 12.696 10.302 12.696a22.233 22.233 0 0 0 5.701-.798v3.421c-2.149.612-4.38.894-6.614.836-10.035 0-14.103-6.728-14.103-16.117 0-7.603 2.813-14.179 11.404-14.179 6.728 0 10.111 4.638 10.111 10.986v1.406l-16.801.039zm6.386-8.933a6.08 6.08 0 0 0-6.082 5.474h11.632a5.358 5.358 0 0 0-5.664-5.473h.114zm31.361 26.114v-4.903a7.828 7.828 0 0 1-7.603 5.587c-8.324 0-9.883-8.134-9.883-14.9s1.938-15.205 9.845-15.205a7.604 7.604 0 0 1 7.603 5.436v-17.941h4.105v41.813l-4.067.113zm-6.729-26.114c-5.663 0-6.157 8.704-6.157 12.695s.646 10.644 6.006 10.644c5.359 0 6.804-7.603 6.804-11.403 0-3.802-1.292-11.936-6.766-11.936h.113zm16.231 26.114v-6.082H612v6.082h-5.969z"/></svg>