<?xml version="1.0" encoding="UTF-8"?>
<svg width="761px" height="96px" viewBox="0 0 761 96" version="1.1" xmlns="http://www.w3.org/2000/svg" xmlns:xlink="http://www.w3.org/1999/xlink">
    <!-- Generator: Sketch 45.2 (43514) - http://www.bohemiancoding.com/sketch -->
    <title>Group 3</title>
    <desc>Created with Sketch.</desc>
    <defs></defs>
    <g id="Page-1" stroke="none" stroke-width="1" fill="none" fill-rule="evenodd">
        <g id="SPACED" transform="translate(-111.000000, -165.000000)">
            <g id="Group-3" transform="translate(102.000000, 161.000000)">
                <g id="Page-1" transform="translate(175.000000, 15.000000)">
                    <path d="M25.3515633,22.3569471 L25.4347882,22.3569471 C23.2764902,19.9500841 20.2892726,18.7061499 16.5552506,18.7061499 C12.8212286,18.7061499 10.0825759,19.9500841 7.84216276,22.4401719 L7.92427795,22.4401719 C5.76708962,24.92915 4.60527059,27.9174773 4.60527059,31.4850495 C4.60527059,35.2190715 5.76708962,38.289514 7.84216276,40.6963769 L7.84216276,40.613152 C9.91612623,43.1032398 12.8212286,44.2650588 16.5552506,44.2650588 C20.2892726,44.2650588 23.2764902,43.1032398 25.4347882,40.613152 L25.3515633,40.613152 C27.5087517,38.1241739 28.5884555,35.1369563 28.5884555,31.4850495 C28.5884555,27.8342524 27.5087517,24.8459252 25.3515633,22.3569471 M28.4220058,43.4350296 C25.3515633,46.6708121 21.4510916,48.4129858 16.5552506,48.4129858 C11.9079745,48.4129858 7.67571304,46.5065817 4.68849545,43.5171448 C4.68849545,43.5171448 4.60527059,43.5171448 4.60527059,43.4350296 L4.60527059,65.0945764 L0.207669065,65.0945764 L0.207669065,15.0542431 L4.60527059,15.0542431 L4.60527059,19.3697295 L4.68849545,19.2865046 C7.7589379,16.133947 11.6594096,14.4738885 16.5552506,14.4738885 C21.4510916,14.4738885 25.4347882,16.133947 28.4220058,19.2865046 C31.4924482,22.5222871 33.0692819,26.5059837 33.0692819,31.4018247 C33.0692819,36.2976657 31.4092234,40.3645871 28.4220058,43.4350296" id="Fill-12" fill="#17A0D8"></path>
                    <path d="M70.5854946,60.4464126 C67.6803922,63.5179647 63.6978053,65.0936887 58.8019643,65.0936887 C54.9014926,65.0936887 51.0842457,63.8486448 47.4323389,61.5261164 L48.9259477,57.2106301 C51.1663609,58.7874637 53.3246589,59.782833 55.3165072,60.2821822 C56.6447759,60.6128623 57.8887102,60.779312 58.8851891,60.779312 C62.6192111,60.779312 65.3578638,59.5342681 67.3486024,57.2927453 C69.3404507,54.9691072 70.33582,52.1472297 70.33582,48.4132077 L70.33582,45.09531 C68.0132916,47.3357232 65.0249644,48.3310925 61.2909424,48.3310925 C56.975456,48.3310925 53.5732238,46.7542589 51.1663609,43.933491 C49.0091726,41.2780632 47.9305784,37.7093812 47.9305784,33.4760101 L47.9305784,15.0544651 L52.2460647,15.0544651 L52.2460647,34.3903739 C52.2460647,37.2943666 53.076094,39.6180046 54.6529277,41.361288 L54.5697028,41.361288 C56.3118765,43.3531363 58.4701745,44.2652807 61.2909424,44.2652807 C64.1128199,44.2652807 66.2700082,43.3531363 67.9300668,41.4434032 C69.5069004,39.7012295 70.33582,37.2943666 70.33582,34.3903739 L70.33582,15.0544651 L74.7345312,15.0544651 L74.7345312,48.4132077 C74.7345312,53.3090487 73.4062624,57.2927453 70.5854946,60.4464126" id="Fill-14" fill="#17A0D8"></path>
                    <path d="M104.400531,47.58451 C95.9360084,47.58451 91.7869718,43.6840383 91.7869718,35.8842046 L91.7869718,5.67690994 L96.1013485,5.67690994 L96.1013485,15.054687 L105.230561,15.054687 L105.230561,19.4522885 L96.1013485,19.4522885 L96.1013485,35.63453 C96.1013485,40.6968207 98.8411108,43.4354734 104.400531,43.4354734 L107.055959,43.4354734 L107.055959,47.58451 L104.400531,47.58451 Z" id="Fill-16" fill="#17A0D8"></path>
                    <path d="M143.890616,47.750294 L143.890616,28.5808349 C143.890616,25.9254071 143.060587,23.3532041 141.733427,21.5278055 C140.156594,19.7845222 138.081521,18.705928 135.426093,18.705928 C132.35565,18.705928 129.949897,19.867747 128.123389,21.9417105 C126.546555,24.1832333 125.717636,26.9207764 125.717636,30.0744437 L125.717636,47.750294 L121.402149,47.750294 L121.402149,0.11682359 L125.717636,0.11682359 L125.717636,18.6227031 C128.123389,16.2158402 131.775296,14.3915513 135.426093,14.3915513 C139.493014,14.3915513 142.895246,15.8840505 145.13566,18.7880432 C147.127508,21.3613558 148.288217,24.8457032 148.288217,28.9969592 L148.288217,47.750294 L143.890616,47.750294 Z" id="Fill-18" fill="#17A0D8"></path>
                    <path d="M186.798276,22.2735003 L186.881501,22.2735003 C184.724312,19.867747 181.735985,18.6227031 178.001963,18.6227031 C174.433281,18.6227031 171.362839,20.1174216 169.20565,22.2735003 C167.297027,24.5150231 166.051983,27.7508056 166.051983,31.3194876 C166.051983,34.9702847 167.214912,38.123952 169.20565,40.5308149 C171.362839,42.6868936 174.433281,44.0983872 178.001963,44.0983872 C181.735985,44.0983872 184.557862,42.9365681 186.798276,40.44759 L186.715051,40.44759 C188.873349,37.8753871 190.035168,34.9702847 190.035168,31.3194876 C190.035168,27.6675808 188.873349,24.6814728 186.798276,22.2735003 M189.951943,43.5180325 C186.881501,46.7549246 182.981029,48.3306486 178.001963,48.3306486 C173.189347,48.3306486 169.20565,46.6705901 166.218433,43.5180325 C163.064765,40.28225 161.571157,36.2153286 161.571157,31.4027124 C161.571157,26.5057617 163.231215,22.6063997 166.218433,19.3695075 C169.288875,16.0505002 173.189347,14.4736665 178.001963,14.4736665 C182.981029,14.4736665 186.964725,16.133725 190.035168,19.3695075 C193.022385,22.5231748 194.515994,26.5057617 194.515994,31.4027124 C194.515994,36.3817783 193.022385,40.44759 189.951943,43.5180325" id="Fill-20" fill="#17A0D8"></path>
                    <path d="M230.501091,47.750294 L230.501091,28.5808349 C230.501091,25.6757325 229.671062,23.3532041 228.094229,21.443471 L228.177453,21.5278055 C226.43528,19.6180724 224.193757,18.6227031 221.456214,18.6227031 C218.634336,18.6227031 216.560373,19.5359572 214.817089,21.1949061 C213.240256,22.8538549 212.327002,25.0132626 212.327002,27.7508056 L212.327002,47.750294 L208.012625,47.6681788 L208.012625,14.971906 L212.327002,14.971906 L212.327002,17.7937835 C214.651749,15.7187104 217.805417,14.4736665 221.456214,14.4736665 C225.77059,14.4736665 229.090708,15.9661656 231.579686,18.9556026 L231.579686,18.8723777 C233.737984,21.3613558 234.899803,25.0132626 234.899803,29.3276393 L234.899803,47.750294 L230.501091,47.750294 Z" id="Fill-22" fill="#17A0D8"></path>
                    <path d="M277.290107,22.2735003 L277.373332,22.2735003 C275.216143,19.867747 272.227816,18.6227031 268.493794,18.6227031 C264.925112,18.6227031 261.855779,20.1174216 259.697481,22.2735003 C257.788858,24.5150231 256.544924,27.7508056 256.544924,31.3194876 C256.544924,34.9702847 257.706743,38.123952 259.697481,40.5308149 C261.855779,42.6868936 264.925112,44.0983872 268.493794,44.0983872 C272.227816,44.0983872 275.049694,42.9365681 277.290107,40.44759 L277.207992,40.44759 C279.36518,37.8753871 280.526999,34.9702847 280.526999,31.3194876 C280.526999,27.6675808 279.36518,24.6814728 277.290107,22.2735003 L277.290107,22.2735003 Z M280.526999,47.750294 L280.526999,43.4348076 L280.443774,43.5180325 C277.373332,46.6705901 275.216143,48.3306486 270.070628,48.3306486 C265.256902,48.3306486 259.697481,46.6705901 256.710264,43.5180325 C253.556597,40.28225 252.064097,36.2153286 252.064097,31.4027124 C252.064097,26.5057617 253.723046,22.6063997 256.710264,19.3695075 C259.780706,16.0505002 263.680068,14.4736665 268.493794,14.4736665 C273.224295,14.4736665 277.455447,16.2990651 280.443774,19.2873923 C280.443774,19.2873923 280.526999,19.2873923 280.526999,19.3695075 L280.526999,15.0540212 L284.924601,15.0540212 L284.924601,47.750294 L280.526999,47.750294 Z" id="Fill-24" fill="#000000"></path>
                    <path d="M324.655704,47.750294 L324.655704,28.5808349 C324.655704,25.6757325 323.825675,23.3532041 322.248841,21.443471 L322.332066,21.5278055 C320.589892,19.6180724 318.34837,18.6227031 315.610827,18.6227031 C312.788949,18.6227031 310.714986,19.5359572 308.971702,21.1949061 C307.394869,22.8538549 306.481614,25.0132626 306.481614,27.7508056 L306.481614,47.750294 L302.166128,47.6681788 L302.166128,14.971906 L306.481614,14.971906 L306.481614,17.7937835 C308.806362,15.7187104 311.960029,14.4736665 315.610827,14.4736665 C319.925203,14.4736665 323.24532,15.9661656 325.734298,18.9556026 L325.734298,18.8723777 C327.892596,21.3613558 329.054415,25.0132626 329.054415,29.3276393 L329.054415,47.750294 L324.655704,47.750294 Z" id="Fill-26" fill="#000000"></path>
                    <path d="M368.436529,60.4464126 C365.532537,63.5179647 361.54884,65.0936887 356.652999,65.0936887 C352.752527,65.0936887 348.93639,63.8486448 345.284483,61.5261164 L346.778092,57.2106301 C349.018505,58.7874637 351.175694,59.782833 353.167542,60.2821822 C354.495811,60.6128623 355.740855,60.779312 356.736224,60.779312 C360.470246,60.779312 363.208899,59.5342681 365.200747,57.2927453 C367.192595,54.9691072 368.187965,52.1472297 368.187965,48.4132077 L368.187965,45.09531 C365.865436,47.3357232 362.877109,48.3310925 359.143087,48.3310925 C354.827601,48.3310925 351.425368,46.7542589 349.018505,43.933491 C346.861317,41.2780632 345.782723,37.7093812 345.782723,33.4760101 L345.782723,15.0544651 L350.098209,15.0544651 L350.098209,34.3903739 C350.098209,37.2943666 350.927129,39.6180046 352.503963,41.361288 L352.420738,41.361288 C354.164021,43.3531363 356.321209,44.2652807 359.143087,44.2652807 C361.963855,44.2652807 364.121043,43.3531363 365.781102,41.4434032 C367.357935,39.7012295 368.187965,37.2943666 368.187965,34.3903739 L368.187965,15.0544651 L372.585566,15.0544651 L372.585566,48.4132077 C372.585566,53.3090487 371.258407,57.2927453 368.436529,60.4464126" id="Fill-28" fill="#000000"></path>
                    <path d="M421.925812,44.7626325 C421.013667,47.1694954 419.684289,48.4134296 417.776775,48.4134296 C415.784927,48.4134296 414.457768,47.1694954 413.544514,44.7626325 L410.390846,36.2159944 C409.312252,39.0378719 408.315773,42.0239798 407.238289,44.7626325 C406.323925,47.1694954 404.748201,48.4134296 403.004918,48.4134296 C401.013069,48.4134296 399.68591,47.1694954 398.773766,44.7626325 L387.652705,15.054687 L392.217866,15.054687 L402.589903,42.8540091 L402.589903,42.7718939 C402.839578,43.4354734 403.004918,43.6840383 402.922802,43.6840383 C403.004918,43.6840383 403.004918,43.4354734 403.337817,42.7718939 L403.337817,42.8540091 C404.914651,38.5396324 406.491484,34.5559359 408.068318,30.2404495 C406.24181,25.5942831 404.166737,19.7840783 402.424563,15.054687 L406.905389,15.054687 L417.279645,42.8540091 L417.279645,42.7718939 C417.527101,43.4354734 417.610325,43.6840383 417.610325,43.6840383 C417.610325,43.6840383 417.69466,43.4354734 417.942115,42.8540091 L428.316371,15.054687 L433.045763,15.054687 L421.925812,44.7626325 Z" id="Fill-30" fill="#000000"></path>
                    <path d="M469.581808,47.750294 L469.581808,28.5808349 C469.581808,25.9254071 468.751779,23.3532041 467.42462,21.5278055 C465.847786,19.7845222 463.773823,18.705928 461.117285,18.705928 C458.046843,18.705928 455.64109,19.867747 453.814582,21.9417105 C452.237748,24.1832333 451.407719,26.9207764 451.407719,30.0744437 L451.407719,47.750294 L447.092232,47.750294 L447.092232,0.11682359 L451.407719,0.11682359 L451.407719,18.6227031 C453.814582,16.2158402 457.466488,14.3915513 461.117285,14.3915513 C465.183097,14.3915513 468.586439,15.8840505 470.826852,18.7880432 C472.818701,21.3613558 473.98052,24.8457032 473.98052,28.9969592 L473.98052,47.750294 L469.581808,47.750294 Z" id="Fill-32" fill="#000000"></path>
                    <path d="M491.841129,28.9130685 L515.491415,28.9130685 C515.0764,26.0079661 513.832466,23.518988 511.923842,21.6924798 C509.849879,19.7006315 507.193341,18.623147 503.707884,18.623147 C500.305652,18.623147 497.650224,19.7006315 495.575151,21.6924798 C493.501188,23.518988 492.339369,26.0079661 491.841129,28.9130685 M520.056575,31.7338364 C520.056575,32.0656262 519.973351,33.0621051 519.973351,33.1442203 L491.759014,33.1442203 C492.174028,36.2978876 493.417963,38.9533154 495.409811,40.8630485 C497.566999,42.937012 500.388877,44.098831 503.957559,44.098831 C505.866182,44.098831 507.85803,43.7670413 509.849879,43.1855769 L509.849879,43.2699114 C512.007067,42.523107 513.749241,41.361288 515.326074,39.8665696 L518.479742,42.937012 C514.994285,46.4224691 510.264893,48.3310925 504.039674,48.3310925 C499.143833,48.3310925 495.078021,46.671034 492.007579,43.6005915 C488.770687,40.5312588 487.194963,36.465447 487.194963,31.4020466 C487.194963,26.5062056 488.855021,22.6057339 491.841129,19.3688417 C494.912681,16.0498344 498.812043,14.4730007 503.625769,14.4730007 C508.438385,14.4730007 512.338857,16.0498344 515.409299,19.2035017 C518.479742,22.2739441 520.1398,26.091191 520.1398,30.987032 C520.1398,31.2367066 520.221915,31.3199314 520.056575,31.7338364" id="Fill-34" fill="#000000"></path>
                    <path d="M551.822616,19.7844112 L551.075812,19.6190711 C551.157927,19.7011863 550.245783,19.5358463 549.665428,19.4526214 C549.250413,19.3693966 548.918623,19.3693966 548.253934,19.2872814 C545.847071,19.4526214 543.358093,20.6144404 541.61592,22.9380785 C539.789411,25.2628262 538.877267,28.6639488 538.877267,33.06266 L538.877267,47.750183 L534.478556,47.750183 L534.478556,15.0539102 L538.877267,15.0539102 L538.877267,19.2872814 C541.28413,16.8804185 545.100267,14.8885702 548.918623,14.8885702 C548.918623,14.8885702 549.415753,14.971795 549.996108,15.0539102 C550.577572,15.1382448 552.072291,15.3857 553.06766,15.5532594 L553.06766,19.7844112 L551.822616,19.7844112 Z" id="Fill-36" fill="#000000"></path>
                    <g id="Group-40" transform="translate(561.000000, 14.106000)" fill="#000000">
                        <path d="M4.98604454,14.8070685 L28.63633,14.8070685 C28.2213154,11.9019661 26.9773812,9.41298801 25.0687577,7.58647978 C22.9947943,5.5946315 20.3382568,4.517147 16.8527997,4.517147 C13.4505675,4.517147 10.7951397,5.5946315 8.72006653,7.58647978 C6.64610305,9.41298801 5.48428403,11.9019661 4.98604454,14.8070685 M33.2014909,17.6278364 C33.2014909,17.9596262 33.1182661,18.9561051 33.1182661,19.0382203 L4.90392935,19.0382203 C5.31894398,22.1918876 6.5628782,24.8473154 8.55472648,26.7570485 C10.7119148,28.831012 13.5337923,29.992831 17.1024743,29.992831 C19.0110977,29.992831 21.002946,29.6610413 22.9947943,29.0795769 L22.9947943,29.1639114 C25.1519826,28.417107 26.8941563,27.255288 28.47099,25.7605696 L31.6246573,28.831012 C28.1392002,32.3164691 23.4098089,34.2250925 17.1845895,34.2250925 C12.2887485,34.2250925 8.22293671,32.565034 5.15249426,29.4945915 C1.9156021,26.4252588 0.339878107,22.359447 0.339878107,17.2960466 C0.339878107,12.4002056 1.99993662,8.4997339 4.98604454,5.26284173 C8.05759666,1.94383437 11.9569587,0.367000721 16.7706845,0.367000721 C21.5833007,0.367000721 25.4837724,1.94383437 28.5542148,5.09750168 C31.6246573,8.16794413 33.2847158,11.985191 33.2847158,16.881032 C33.2847158,17.1307066 33.366831,17.2139314 33.2014909,17.6278364" id="Fill-38"></path>
                    </g>
                </g>
                <g id="Group-2" fill="#040404">
                    <path d="M72.3878,99.8311 C71.8798,99.2281 71.1688,98.8981 70.5218,98.4971 C69.9948,98.1691 69.8058,97.8651 69.9028,97.1941 C70.7508,91.2641 71.5468,85.3271 72.3538,79.3911 C72.8998,75.3771 73.4388,71.3621 74.0018,67.1931 C74.9348,67.8071 75.8028,68.3571 76.6438,68.9441 C76.8928,69.1191 76.7478,69.4361 76.7168,69.6821 C76.5338,71.1171 76.3348,72.5501 76.1398,73.9841 C75.7008,77.2251 75.2598,80.4651 74.8198,83.7061 C74.3848,86.9181 73.9488,90.1301 73.5148,93.3421 C73.4038,94.1711 73.2998,95.0011 73.1868,95.8691 C73.5868,95.9161 73.8238,95.6841 74.0828,95.5421 C81.6028,91.4441 89.1188,87.3401 96.6368,83.2371 C96.8398,83.1261 97.0498,83.0261 97.2448,82.9031 C97.4628,82.7671 97.6538,82.7431 97.8838,82.8981 C98.6708,83.4291 99.4688,83.9441 100.3648,84.5321 C100.0158,84.7401 99.7628,84.9011 99.4998,85.0451 C90.8218,89.7991 82.1408,94.5481 73.4668,99.3101 C73.2098,99.4511 72.8498,99.4791 72.7358,99.8311 L72.3878,99.8311 Z" id="Fill-1" transform="translate(85.121587, 83.512100) rotate(1.000000) translate(-85.121587, -83.512100) "></path>
                    <path d="M45.445,45.6226 C45.195,47.1756 44.965,48.5976 44.737,50.0196 C44.007,54.5916 43.276,59.1646 42.546,63.7376 C42.117,66.4236 41.673,69.1076 41.28,71.7996 C41.209,72.2896 41.014,72.4976 40.569,72.6196 C39.736,72.8486 38.914,73.1236 38.116,73.3716 C37.921,73.1716 38.021,73.0036 38.047,72.8386 C38.832,67.8646 39.616,62.8906 40.401,57.9156 C41.164,53.0846 41.928,48.2536 42.684,43.4216 C42.749,43.0126 42.883,42.7546 43.342,42.6486 C44.016,42.4936 44.675,42.2606 45.325,42.0186 C45.755,41.8586 46.041,41.9076 46.387,42.2586 C48.074,43.9716 49.8,45.6466 51.511,47.3366 C56.953,52.7126 62.393,58.0896 67.834,63.4666 C67.954,63.5856 68.063,63.7176 68.215,63.8846 C67.237,64.2876 66.257,64.5316 65.3,64.8436 C64.965,64.9526 64.831,64.6886 64.655,64.5176 C63.329,63.2216 62.006,61.9216 60.686,60.6196 C55.736,55.7366 50.787,50.8516 45.837,45.9676 C45.757,45.8876 45.667,45.8166 45.445,45.6226" id="Fill-14"></path>
                    <path d="M71.4323,61.1065 C70.6703,60.3575 69.9813,59.6695 69.2803,58.9955 C69.0303,58.7555 69.1583,58.5315 69.2443,58.2845 C69.8723,56.4825 70.4923,54.6795 71.1173,52.8775 C73.3063,46.5685 75.4963,40.2605 77.6843,33.9515 C77.7663,33.7155 77.8413,33.4775 77.9233,33.2285 C77.5413,33.0835 77.2573,33.2945 76.9703,33.3845 C68.8053,35.9445 60.6453,38.5225 52.4803,41.0835 C51.1973,41.4855 51.6253,41.6005 50.6403,40.6385 C50.1443,40.1545 49.6603,39.6595 49.1623,39.1605 C49.3963,38.8685 49.7413,38.8655 50.0313,38.7735 C59.5113,35.7705 68.9963,32.7855 78.4703,29.7635 C79.1573,29.5445 79.5893,29.6355 80.0303,30.1705 C80.3783,30.5935 80.7843,30.9765 81.2073,31.3255 C81.6093,31.6565 81.6303,31.9785 81.4603,32.4525 C80.3913,35.4465 79.3553,38.4535 78.3083,41.4555 C76.1173,47.7335 73.9263,54.0105 71.7343,60.2885 C71.6513,60.5255 71.5603,60.7605 71.4323,61.1065" id="Fill-16"></path>
                    <path d="M69.695,67.4116 C69.536,68.4456 69.38,69.3546 69.264,70.2686 C69.215,70.6576 68.941,70.6926 68.666,70.7796 C66.516,71.4596 64.368,72.1456 62.218,72.8266 C55.99,74.7996 49.761,76.7706 43.533,78.7436 C43.295,78.8186 43.06,78.9006 42.763,78.9996 C42.997,79.3276 43.289,79.4636 43.542,79.6386 C50.546,84.4736 57.547,89.3116 64.567,94.1236 C65.18,94.5446 65.52,94.9196 65.287,95.7146 C65.086,96.4006 65.044,97.1316 64.93,97.8486 C64.591,97.8556 64.419,97.6426 64.218,97.5046 C56.011,91.8646 47.812,86.2136 39.594,80.5886 C39.049,80.2156 38.889,79.8426 39.035,79.2316 C39.17,78.6706 39.291,78.0956 39.314,77.5216 C39.335,77.0006 39.608,76.8476 40.032,76.7136 C49.767,73.6516 59.499,70.5796 69.231,67.5116 C69.338,67.4776 69.451,67.4636 69.695,67.4116" id="Fill-18"></path>
                    <path d="M47.1994,5.7969 C47.1624,6.8219 46.9224,7.7789 46.8114,8.7499 C46.7684,9.1279 46.4094,9.1249 46.1514,9.2099 C44.3364,9.8019 42.5184,10.3829 40.7014,10.9689 C34.1774,13.0739 27.6524,15.1759 21.1314,17.2909 C20.8984,17.3659 20.6004,17.3529 20.4194,17.6549 C20.6954,17.8519 20.9674,18.0549 21.2474,18.2459 C28.3084,23.0579 35.3644,27.8759 42.4424,32.6619 C42.9894,33.0319 43.1574,33.3889 43.0274,34.0039 C42.8664,34.7599 42.7724,35.5299 42.6484,36.3009 C42.3024,36.2549 42.0974,36.0329 41.8634,35.8739 C33.6684,30.3089 25.4814,24.7339 17.2734,19.1899 C16.7014,18.8039 16.4964,18.4369 16.6584,17.7829 C16.7964,17.2229 16.8884,16.6439 16.9294,16.0689 C16.9614,15.6189 17.1524,15.4299 17.5744,15.2989 C19.8654,14.5829 22.1454,13.8299 24.4304,13.0959 C31.7564,10.7409 39.0814,8.3889 46.4074,6.0359 C46.6514,5.9579 46.8984,5.8879 47.1994,5.7969" id="Fill-20" transform="translate(31.902084, 21.048900) rotate(1.000000) translate(-31.902084, -21.048900) "></path>
                    <path d="M77.6203,26.2154 C76.7983,26.4884 76.0193,26.7144 75.2673,27.0084 C74.7413,27.2154 74.3943,27.1284 73.9773,26.7204 C71.1813,23.9884 68.3523,21.2904 65.5343,18.5814 C62.1533,15.3294 58.7723,12.0764 55.3853,8.8324 C55.1833,8.6384 55.0283,8.3744 54.6623,8.2764 C54.5033,9.3164 54.3413,10.3404 54.1913,11.3654 C53.5043,16.0604 52.8173,20.7554 52.1353,25.4504 C51.7033,28.4284 51.2703,31.4064 50.8623,34.3874 C50.7983,34.8504 50.6433,35.1014 50.1673,35.2294 C49.3323,35.4534 48.5183,35.7574 47.6533,36.0424 C47.5073,35.4904 47.7103,34.9904 47.7803,34.5014 C48.6653,28.2854 49.5803,22.0744 50.4823,15.8614 C50.9603,12.5684 51.4383,9.2764 51.8923,5.9794 C51.9473,5.5804 52.0663,5.3614 52.4713,5.2494 C53.1393,5.0654 53.8003,4.8444 54.4443,4.5894 C54.9403,4.3934 55.2663,4.5064 55.6493,4.8804 C58.3633,7.5304 61.1053,10.1524 63.8373,12.7834 C68.2393,17.0224 72.6413,21.2584 77.0373,25.5024 C77.2373,25.6954 77.5123,25.8344 77.6203,26.2154" id="Fill-22" transform="translate(62.610999, 20.268483) rotate(1.000000) translate(-62.610999, -20.268483) "></path>
                    <g id="Group" transform="translate(110.475024, 41.357179) rotate(4.000000) translate(-110.475024, -41.357179) translate(80.975024, 2.857179)">
                        <path d="M2.1989,68.0674 C1.7279,66.6744 1.4339,65.3224 1.1769,63.9614 C0.2029,58.8004 0.3929,53.6974 2.0539,48.6984 C4.6589,40.8564 9.6289,34.9294 16.7559,30.7924 C20.2789,28.7474 24.0499,27.3084 28.0139,26.2424 C28.2739,26.5284 28.1969,26.8984 28.2599,27.2214 C28.3759,27.8174 28.4429,28.4234 28.5709,29.0164 C28.6639,29.4554 28.5059,29.6154 28.0879,29.7444 C25.4589,30.5594 22.9099,31.5794 20.4739,32.8694 C14.0279,36.2824 9.2249,41.2294 6.3939,48.0034 C4.4999,52.5374 3.8889,57.2444 4.5079,62.1194 C4.6759,63.4424 4.9049,64.7514 5.2389,66.0404 C5.3469,66.4604 5.2899,66.7224 4.8349,66.9024 C3.9769,67.2424 3.1429,67.6454 2.1989,68.0674" id="Fill-7"></path>
                        <path d="M16.6876,76.8247 C16.6486,75.8107 16.6296,74.8857 16.5696,73.9627 C16.5416,73.5267 16.7066,73.3797 17.1236,73.2817 C19.6936,72.6767 22.1936,71.8517 24.5336,70.6147 C33.0616,66.1057 38.2846,59.1327 40.0626,49.6287 C40.7726,45.8307 40.6566,42.0197 40.1066,38.2127 C40.0736,37.9827 40.0396,37.7537 40.0206,37.5227 C39.9866,37.1257 39.6686,36.6577 39.9396,36.3607 C40.1806,36.0967 40.6676,36.0547 41.0516,35.9267 C41.7076,35.7077 42.3666,35.4987 43.0746,35.2697 C43.4666,36.6107 43.6506,37.9537 43.8246,39.2917 C44.1906,42.1117 44.3086,44.9397 44.0806,47.7857 C43.5596,54.3027 41.2456,60.0917 37.1516,65.1747 C32.7686,70.6157 27.0966,74.0667 20.4236,75.9607 C19.2316,76.2987 18.0256,76.5847 16.6876,76.8247" id="Fill-9"></path>
                        <path d="M41.8961933,17.6844713 C42.1971508,17.6737547 42.3337873,17.4987171 42.4963221,17.3835138 C46.3730471,14.6659662 50.4355262,12.2333012 54.400663,9.65328316 C54.6489306,9.49164132 54.8614762,9.38536851 55.1749364,9.55951303 C56.0992419,10.0748022 57.0440875,10.5516903 58.0434092,11.0759099 C57.8290775,11.3250706 57.5781307,11.4313434 57.3539755,11.5670868 C52.3216453,14.6373887 47.2919943,17.7094766 42.2525198,20.7672758 C41.816712,21.0325113 41.5032518,21.3549019 41.2576634,21.8032125 C39.5296139,24.9529957 37.7810243,28.0911693 36.0369,31.232022 C35.7252259,31.7928566 35.7189746,31.7937497 35.1822522,31.5169046 C34.6089149,31.2204124 34.0373636,30.9194549 33.4667054,30.6158183 C32.9058708,30.31754 32.9022986,30.3130747 33.2005769,29.7736732 C34.3017061,27.7839605 35.4055144,25.7960338 36.5084298,23.806321 C37.171965,22.6078495 37.8265698,21.4049127 38.5052869,20.2144786 C38.7044368,19.8652965 38.7937417,19.5205797 38.7901695,19.1169216 C38.7401588,13.3478262 38.7017577,7.57783768 38.6615705,1.8078492 C38.6597844,1.55422334 38.6615705,1.30059747 38.6615705,0.982672087 C39.5028225,1.29791832 40.1904701,1.83017542 40.9781391,2.11595105 C41.9069099,2.45263046 42.1257069,3.03579134 42.1060598,3.9842092 C42.0283646,7.73501427 42.0480116,11.4884985 42.0167549,15.2401966 C42.0105036,16.0403684 41.9399527,16.8405401 41.8961933,17.6844713" id="Fill-11"></path>
                        <path d="M22.4095178,43.5883927 C22.3655178,44.9843927 20.8725178,46.9413927 19.5365178,47.3163927 C18.5345178,47.5963927 17.6405178,47.3593927 16.9025178,46.6263927 C16.1985178,45.9283927 16.0165178,45.0673927 16.3165178,44.1463927 C16.7045178,42.9543927 17.4305178,41.9833927 18.5215178,41.3443927 C19.3855178,40.8393927 20.2915178,40.8533927 21.1595178,41.3723927 C21.9915178,41.8693927 22.4625178,42.5853927 22.4095178,43.5883927" id="Fill-24"></path>
                        <path d="M33.0142834,49.4728933 C32.9922834,50.9068933 31.4872834,52.8918933 30.1062834,53.2638933 C29.1392834,53.5238933 28.2692834,53.2948933 27.5382834,52.6038933 C26.8322834,51.9368933 26.6652834,51.0848933 26.9302834,50.2078933 C27.3102834,48.9508933 28.0722834,47.9198933 29.2302834,47.2718933 C30.9332834,46.3198933 33.0442834,47.5678933 33.0142834,49.4728933" id="Fill-26"></path>
                    </g>
                    <path d="M36.1994,26.7969 C36.1624,27.8219 35.9224,28.7789 35.8114,29.7499 C35.7684,30.1279 35.4094,30.1249 35.1514,30.2099 C33.3364,30.8019 31.5184,31.3829 29.7014,31.9689 C23.1774,34.0739 16.6524,36.1759 10.1314,38.2909 C9.8984,38.3659 9.6004,38.3529 9.4194,38.6549 C9.6954,38.8519 9.9674,39.0549 10.2474,39.2459 C17.3084,44.0579 24.3644,48.8759 31.4424,53.6619 C31.9894,54.0319 32.1574,54.3889 32.0274,55.0039 C31.8664,55.7599 31.7724,56.5299 31.6484,57.3009 C31.3024,57.2549 31.0974,57.0329 30.8634,56.8739 C22.6684,51.3089 14.4814,45.7339 6.2734,40.1899 C5.7014,39.8039 5.4964,39.4369 5.6584,38.7829 C5.7964,38.2229 5.8884,37.6439 5.9294,37.0689 C5.9614,36.6189 6.1524,36.4299 6.5744,36.2989 C8.8654,35.5829 11.1454,34.8299 13.4304,34.0959 C20.7564,31.7409 28.0814,29.3889 35.4074,27.0359 C35.6514,26.9579 35.8984,26.8879 36.1994,26.7969" id="Fill-20" transform="translate(20.902084, 42.048900) rotate(-63.000000) translate(-20.902084, -42.048900) "></path>
                </g>
            </g>
        </g>
    </g>
</svg>
